<svg xmlns="http://www.w3.org/2000/svg" viewBox="0 0 120 40">
  <!-- Google "G" with star for Reviews -->
  <g transform="translate(12,4)">
    <!-- Google G shape -->
    <path d="M18,4 C10,4 4,10 4,18 C4,26 10,32 18,32 C26,32 32,26 32,18 L32,16 L18,16 L18,20 L28,20 C27,25 23,28 18,28 C12,28 8,24 8,18 C8,12 12,8 18,8 C21,8 23.5,9 25.5,11 L28.5,8 C25.5,5.5 22,4 18,4 Z" fill="#ffffff"/>
  </g>
  <!-- Star icon -->
  <g transform="translate(52,6)">
    <polygon points="14,0 17.5,9 27,9 19.5,15 22,24 14,18.5 6,24 8.5,15 1,9 10.5,9" fill="#ffffff" transform="scale(0.9)"/>
  </g>
  <!-- Text -->
  <text x="82" y="18" font-family="'Helvetica Neue', Arial, sans-serif" font-size="8" font-weight="600" fill="#ffffff" letter-spacing="0.5">Google</text>
  <text x="82" y="30" font-family="'Helvetica Neue', Arial, sans-serif" font-size="8" font-weight="400" fill="#ffffff" letter-spacing="0.5" opacity="0.8">Reviews</text>
</svg>