<svg xmlns="http://www.w3.org/2000/svg" viewBox="0 0 120 40">
  <!-- WhatsApp phone icon in speech bubble -->
  <g transform="translate(10,2) scale(0.9)">
    <!-- Speech bubble outline -->
    <path d="M20,2 C10,2 2,9 2,18 C2,22 3.5,25.5 6,28 L4,36 L12.5,33.5 C14.8,34.5 17.3,35 20,35 C30,35 38,28 38,18 C38,9 30,2 20,2 Z" fill="none" stroke="#ffffff" stroke-width="2"/>
    <!-- Phone handset inside -->
    <path d="M14,12 C14,12 14.5,10.5 15.5,10.5 C16.5,10.5 17,11.5 17,11.5 L18,14 C18,14 17.5,14.8 17.5,15 C17.5,15.5 19,18 20.5,19.5 C22,21 24.5,22.5 25,22.5 C25.2,22.5 26,22 26,22 L28.5,23 C28.5,23 29.5,23.5 29.5,24.5 C29.5,25.5 28,26 28,26 C26,27.5 23,27 20,24 C17,21 14.5,17 13.5,15 C12.5,13 14,12 14,12 Z" fill="#ffffff"/>
  </g>
</svg>